<?xml version="1.0" encoding="utf-8"?>
<!-- Generator: Adobe Illustrator 18.0.0, SVG Export Plug-In . SVG Version: 6.00 Build 0)  -->
<!DOCTYPE svg PUBLIC "-//W3C//DTD SVG 1.1//EN" "http://www.w3.org/Graphics/SVG/1.1/DTD/svg11.dtd">
<svg version="1.1" id="Layer_1" xmlns="http://www.w3.org/2000/svg" xmlns:xlink="http://www.w3.org/1999/xlink" x="0px" y="0px"
	 viewBox="0 0 96 114" enable-background="new 0 0 96 114" xml:space="preserve">
<g>
	<path display="none" fill="#FFFFFF" d="M94,131.5H2c-1.1,0-2-0.9-2-2V2c0-1.1,0.9-2,2-2h92c1.1,0,2,0.9,2,2v127.5
		C96,130.6,95.1,131.5,94,131.5z"/>
	<polygon fill="#F79225" points="34.5,5 5,5 5,30.3 	"/>
	<g>
		<polygon fill="#219045" points="34.7,66.2 54,50.2 68.1,67.2 48.8,83.2 70.3,109 91,109 91,5 71.5,5 20,48.4 		"/>
		<polygon fill="#219045" points="5,67.5 5,109 39.6,109 		"/>
	</g>
</g>
<g>
</g>
<g>
</g>
<g>
</g>
<g>
</g>
<g>
</g>
<g>
</g>
<g>
</g>
<g>
</g>
<g>
</g>
<g>
</g>
<g>
</g>
<g>
</g>
<g>
</g>
<g>
</g>
<g>
</g>
</svg>
